<svg width="136" height="40" viewBox="0 0 136 40" fill="none" xmlns="http://www.w3.org/2000/svg">
<g clip-path="url(#clip0_5_1048)">
<path fill-rule="evenodd" clip-rule="evenodd" d="M130.664 40H5.68651C2.91843 40 0.664062 37.7456 0.664062 35V5C0.664062 2.24439 2.91843 0 5.68651 0H130.664C133.43 0 135.687 2.24439 135.687 5V35C135.687 37.7456 133.43 40 130.664 40Z" fill="black"/>
<path fill-rule="evenodd" clip-rule="evenodd" d="M130.664 0.800499C132.986 0.800499 134.886 2.68828 134.886 5V35C134.886 37.3117 132.998 39.1995 130.664 39.1995H5.68651C3.36481 39.1995 1.46456 37.3117 1.46456 35V5C1.46456 2.68828 3.35234 0.800499 5.68651 0.800499H130.664ZM130.664 0H5.68651C2.91843 0 0.664062 2.25436 0.664062 5V35C0.664062 37.7556 2.91843 40 5.68651 40H130.664C133.43 40 135.687 37.7556 135.687 35V5C135.687 2.25436 133.43 0 130.664 0Z" fill="#A6A6A6"/>
<path d="M68.8001 21.7519C66.4481 21.7519 64.5311 23.5399 64.5311 26.0049C64.5311 28.4539 66.4481 30.2579 68.8001 30.2579C71.1521 30.2579 73.0691 28.4539 73.0691 26.0049C73.0691 23.5399 71.1521 21.7519 68.8001 21.7519ZM68.8001 28.5829C67.5111 28.5829 66.3991 27.5199 66.3991 26.0049C66.3991 24.4739 67.5111 23.4269 68.8001 23.4269C70.0891 23.4269 71.2001 24.4739 71.2001 26.0049C71.2001 27.5189 70.0891 28.5829 68.8001 28.5829ZM59.4861 21.7519C57.1341 21.7519 55.2171 23.5399 55.2171 26.0049C55.2171 28.4539 57.1341 30.2579 59.4861 30.2579C61.8381 30.2579 63.7551 28.4539 63.7551 26.0049C63.7561 23.5399 61.8381 21.7519 59.4861 21.7519ZM59.4861 28.5829C58.1971 28.5829 57.0861 27.5199 57.0861 26.0049C57.0861 24.4739 58.1981 23.4269 59.4861 23.4269C60.7751 23.4269 61.8861 24.4739 61.8861 26.0049C61.8871 27.5189 60.7751 28.5829 59.4861 28.5829ZM48.4081 23.0569V24.8609H52.7261C52.5971 25.8759 52.2591 26.6169 51.7431 27.1329C51.1151 27.7609 50.1321 28.4539 48.4081 28.4539C45.7501 28.4539 43.6721 26.3109 43.6721 23.6529C43.6721 20.9949 45.7501 18.8519 48.4081 18.8519C49.8421 18.8519 50.8891 19.4159 51.6621 20.1409L52.9351 18.8679C51.8561 17.8369 50.4221 17.0469 48.4081 17.0469C44.7671 17.0469 41.7061 20.0109 41.7061 23.6519C41.7061 27.2929 44.7671 30.2569 48.4081 30.2569C50.3731 30.2569 51.8561 29.6129 53.0161 28.4039C54.2081 27.2119 54.5791 25.5359 54.5791 24.1829C54.5791 23.7639 54.5471 23.3769 54.4821 23.0549H48.4081V23.0569ZM93.7161 24.4579C93.3621 23.5069 92.2821 21.7509 90.0751 21.7509C87.8841 21.7509 86.0641 23.4749 86.0641 26.0039C86.0641 28.3879 87.8681 30.2569 90.2851 30.2569C92.2341 30.2569 93.3621 29.0649 93.8291 28.3719L92.3791 27.4049C91.8961 28.1139 91.2351 28.5809 90.2851 28.5809C89.3341 28.5809 88.6581 28.1459 88.2231 27.2919L93.9101 24.9399L93.7161 24.4579ZM87.9161 25.8759C87.8681 24.2329 89.1891 23.3949 90.1391 23.3949C90.8801 23.3949 91.5081 23.7649 91.7181 24.2969L87.9161 25.8759ZM83.2921 29.9999H85.1611V17.4989H83.2921V29.9999ZM80.2311 22.7019H80.1671C79.7481 22.2029 78.9431 21.7509 77.9281 21.7509C75.8011 21.7509 73.8521 23.6199 73.8521 26.0199C73.8521 28.4039 75.8011 30.2569 77.9281 30.2569C78.9431 30.2569 79.7481 29.8059 80.1671 29.2899H80.2311V29.9019C80.2311 31.5289 79.3611 32.3989 77.9591 32.3989C76.8151 32.3989 76.1061 31.5769 75.8161 30.8849L74.1891 31.5619C74.6561 32.6899 75.8971 34.0749 77.9591 34.0749C80.1501 34.0749 82.0031 32.7859 82.0031 29.6449V22.0089H80.2311V22.7019V22.7019ZM78.0891 28.5829C76.8001 28.5829 75.7211 27.5039 75.7211 26.0209C75.7211 24.5229 76.8001 23.4269 78.0891 23.4269C79.3621 23.4269 80.3601 24.5219 80.3601 26.0209C80.3601 27.5029 79.3621 28.5829 78.0891 28.5829ZM102.47 17.4989H97.9991V29.9999H99.8641V25.2639H102.469C104.537 25.2639 106.57 23.7669 106.57 21.3819C106.57 18.9969 104.538 17.4989 102.47 17.4989ZM102.518 23.5239H99.8641V19.2389H102.518C103.913 19.2389 104.705 20.3939 104.705 21.3819C104.705 22.3499 103.913 23.5239 102.518 23.5239ZM114.05 21.7289C112.699 21.7289 111.3 22.3239 110.721 23.6429L112.378 24.3349C112.732 23.6429 113.391 23.4179 114.083 23.4179C115.048 23.4179 116.029 23.9969 116.045 25.0259V25.1549C115.707 24.9619 114.983 24.6719 114.099 24.6719C112.314 24.6719 110.496 25.6529 110.496 27.4869C110.496 29.1599 111.96 30.2369 113.6 30.2369C114.855 30.2369 115.546 29.6739 115.98 29.0149H116.044V29.9799H117.845V25.1869C117.845 22.9669 116.189 21.7289 114.05 21.7289ZM113.824 28.5799C113.213 28.5799 112.36 28.2739 112.36 27.5189C112.36 26.5539 113.422 26.1839 114.338 26.1839C115.158 26.1839 115.544 26.3609 116.043 26.6019C115.899 27.7599 114.902 28.5799 113.824 28.5799ZM124.407 22.0019L122.268 27.4219H122.204L119.985 22.0019H117.975L121.304 29.5769L119.406 33.7909H121.352L126.483 22.0019H124.407V22.0019ZM107.6 29.9999H109.466V17.4989H107.6V29.9999Z" fill="white"/>
<path fill-rule="evenodd" clip-rule="evenodd" d="M74.2731 12.2238C73.6831 12.8308 72.9501 13.1328 72.0731 13.1328C71.1961 13.1328 70.4631 12.8298 69.8741 12.2238C69.2841 11.6178 68.9901 10.8758 68.9901 9.99877C68.9901 9.12177 69.2841 8.37977 69.8741 7.77377C70.4631 7.16677 71.1961 6.86377 72.0731 6.86377C72.9451 6.86377 73.6771 7.16877 74.2691 7.77777C74.8611 8.38677 75.1571 9.12677 75.1571 9.99877C75.1571 10.8768 74.8621 11.6188 74.2731 12.2238ZM70.4431 11.7218C70.8871 12.1718 71.4301 12.3958 72.0731 12.3958C72.7161 12.3958 73.2591 12.1708 73.7031 11.7218C74.1471 11.2718 74.3701 10.6978 74.3701 9.99977C74.3701 9.30177 74.1471 8.72677 73.7031 8.27777C73.2601 7.82777 72.7161 7.60377 72.0731 7.60377C71.4301 7.60377 70.8871 7.82877 70.4431 8.27777C70.0001 8.72777 69.7771 9.30177 69.7771 9.99977C69.7771 10.6978 70.0001 11.2718 70.4431 11.7218Z" fill="white"/>
<path d="M48.0821 10.2428C48.0821 11.0808 47.8341 11.7478 47.3371 12.2458C46.7731 12.8378 46.0371 13.1338 45.1331 13.1338C44.2671 13.1338 43.5301 12.8338 42.9251 12.2338C42.3191 11.6328 42.0161 10.8888 42.0161 10.0008C42.0161 9.11177 42.3191 8.36777 42.9251 7.76777C43.5301 7.16677 44.2671 6.86677 45.1331 6.86677C45.5631 6.86677 45.9741 6.95077 46.3641 7.11777C46.7551 7.28577 47.0681 7.50877 47.3021 7.78777L46.7751 8.31577C46.3781 7.84077 45.8311 7.60377 45.1321 7.60377C44.5001 7.60377 43.9541 7.82577 43.4931 8.26977C43.0331 8.71377 42.8031 9.28977 42.8031 9.99977C42.8031 10.7098 43.0331 11.2858 43.4941 11.7308C43.9551 12.1748 44.5011 12.3968 45.1331 12.3968C45.8031 12.3968 46.3621 12.1738 46.8091 11.7268C47.0991 11.4358 47.2671 11.0308 47.3121 10.5118H45.1331V9.78977H48.0401C48.0691 9.94677 48.0821 10.0978 48.0821 10.2428Z" fill="white"/>
<path d="M52.6921 7.73677H49.9601V9.63877H52.4241V10.3598H49.9601V12.2618H52.6921V12.9998H49.1891V6.99977H52.6921V7.73677Z" fill="white"/>
<path d="M55.1711 12.9998H55.9421V7.73677H57.6181V6.99977H53.4951V7.73677H55.1711V12.9998Z" fill="white"/>
<path d="M60.6021 12.9998V6.99977H61.3731V12.9998H60.6021Z" fill="white"/>
<path d="M64.0201 12.9998H64.7911V7.73677H66.4671V6.99977H62.3441V7.73677H64.0201V12.9998Z" fill="white"/>
<path d="M76.2391 6.99977V12.9998H77.0081V9.26177L76.9751 8.10577H77.0081L80.0591 12.9998H80.8641V6.99977H80.0931V10.5118L80.1261 11.6678H80.0931L77.1771 6.99977H76.2391Z" fill="white"/>
<path fill-rule="evenodd" clip-rule="evenodd" d="M74.2731 12.2238C73.6831 12.8308 72.9501 13.1328 72.0731 13.1328C71.1961 13.1328 70.4631 12.8298 69.8741 12.2238C69.2841 11.6178 68.9901 10.8758 68.9901 9.99877C68.9901 9.12177 69.2841 8.37977 69.8741 7.77377C70.4631 7.16677 71.1961 6.86377 72.0731 6.86377C72.9451 6.86377 73.6771 7.16877 74.2691 7.77777C74.8611 8.38677 75.1571 9.12677 75.1571 9.99877C75.1571 10.8768 74.8621 11.6188 74.2731 12.2238ZM70.4431 11.7218C70.8871 12.1718 71.4301 12.3958 72.0731 12.3958C72.7161 12.3958 73.2591 12.1708 73.7031 11.7218C74.1471 11.2718 74.3701 10.6978 74.3701 9.99977C74.3701 9.30177 74.1471 8.72677 73.7031 8.27777C73.2601 7.82777 72.7161 7.60377 72.0731 7.60377C71.4301 7.60377 70.8871 7.82877 70.4431 8.27777C70.0001 8.72777 69.7771 9.30177 69.7771 9.99977C69.7771 10.6978 70.0001 11.2718 70.4431 11.7218Z" stroke="white" stroke-width="0.2" stroke-miterlimit="10"/>
<path d="M48.0821 10.2428C48.0821 11.0808 47.8341 11.7478 47.3371 12.2458C46.7731 12.8378 46.0371 13.1338 45.1331 13.1338C44.2671 13.1338 43.5301 12.8338 42.9251 12.2338C42.3191 11.6328 42.0161 10.8888 42.0161 10.0008C42.0161 9.11177 42.3191 8.36777 42.9251 7.76777C43.5301 7.16677 44.2671 6.86677 45.1331 6.86677C45.5631 6.86677 45.9741 6.95077 46.3641 7.11777C46.7551 7.28577 47.0681 7.50877 47.3021 7.78777L46.7751 8.31577C46.3781 7.84077 45.8311 7.60377 45.1321 7.60377C44.5001 7.60377 43.9541 7.82577 43.4931 8.26977C43.0331 8.71377 42.8031 9.28977 42.8031 9.99977C42.8031 10.7098 43.0331 11.2858 43.4941 11.7308C43.9551 12.1748 44.5011 12.3968 45.1331 12.3968C45.8031 12.3968 46.3621 12.1738 46.8091 11.7268C47.0991 11.4358 47.2671 11.0308 47.3121 10.5118H45.1331V9.78977H48.0401C48.0691 9.94677 48.0821 10.0978 48.0821 10.2428Z" stroke="white" stroke-width="0.2" stroke-miterlimit="10"/>
<path d="M52.6921 7.73677H49.9601V9.63877H52.4241V10.3598H49.9601V12.2618H52.6921V12.9998H49.1891V6.99977H52.6921V7.73677Z" stroke="white" stroke-width="0.2" stroke-miterlimit="10"/>
<path d="M55.1711 12.9998H55.9421V7.73677H57.6181V6.99977H53.4951V7.73677H55.1711V12.9998Z" stroke="white" stroke-width="0.2" stroke-miterlimit="10"/>
<path d="M60.6021 12.9998V6.99977H61.3731V12.9998H60.6021Z" stroke="white" stroke-width="0.2" stroke-miterlimit="10"/>
<path d="M64.0201 12.9998H64.7911V7.73677H66.4671V6.99977H62.3441V7.73677H64.0201V12.9998Z" stroke="white" stroke-width="0.2" stroke-miterlimit="10"/>
<path d="M76.2391 6.99977V12.9998H77.0081V9.26177L76.9751 8.10577H77.0081L80.0591 12.9998H80.8641V6.99977H80.0931V10.5118L80.1261 11.6678H80.0931L77.1771 6.99977H76.2391Z" stroke="white" stroke-width="0.2" stroke-miterlimit="10"/>
<path d="M11.099 7.53784C10.808 7.84584 10.636 8.32384 10.636 8.94284V31.0588C10.636 31.6788 10.808 32.1558 11.099 32.4638L11.173 32.5358L23.562 20.1468V20.0008V19.8548L11.173 7.46484L11.099 7.53784Z" fill="url(#paint0_linear_5_1048)"/>
<path d="M27.692 24.2786L23.563 20.1476V20.0016V19.8556L27.693 15.7256L27.786 15.7786L32.679 18.5586C34.077 19.3526 34.077 20.6516 32.679 21.4466L27.786 24.2266L27.692 24.2786Z" fill="url(#paint1_linear_5_1048)"/>
<path d="M27.7861 24.225L23.5631 20.001L11.0991 32.464C11.5601 32.952 12.3201 33.012 13.1771 32.525L27.7861 24.225Z" fill="url(#paint2_linear_5_1048)"/>
<path d="M27.7861 15.7768L13.1781 7.4768C12.3211 6.9898 11.5611 7.0508 11.1001 7.5378L23.5631 20.0008L27.7861 15.7768Z" fill="url(#paint3_linear_5_1048)"/>
<path opacity="0.2" d="M27.6931 24.1318L13.1781 32.3788C12.3661 32.8398 11.6401 32.8098 11.1741 32.3898L11.0991 32.4648L11.1731 32.5368C11.6391 32.9568 12.3651 32.9878 13.1771 32.5258L27.7851 24.2258L27.6931 24.1318Z" fill="black"/>
<path opacity="0.12" d="M11.099 32.3176C10.808 32.0096 10.636 31.5316 10.636 30.9126V31.0586C10.636 31.6776 10.808 32.1556 11.099 32.4636L11.174 32.3886L11.099 32.3176Z" fill="black"/>
<path opacity="0.12" d="M32.6791 21.299L27.6931 24.132L27.7861 24.225L32.6791 21.445C33.3781 21.048 33.7271 20.525 33.7271 20.002C33.6681 20.475 33.3121 20.939 32.6791 21.299Z" fill="black"/>
<path opacity="0.25" d="M13.177 7.62281L32.678 18.7028C33.312 19.0628 33.667 19.5268 33.726 20.0008C33.726 19.4778 33.377 18.9538 32.678 18.5568L13.177 7.47681C11.779 6.68281 10.636 7.34181 10.636 8.94281V9.08981C10.636 7.48881 11.78 6.82881 13.177 7.62281Z" fill="white"/>
</g>
<defs>
<linearGradient id="paint0_linear_5_1048" x1="22.4636" y1="8.70964" x2="5.68125" y2="25.492" gradientUnits="userSpaceOnUse">
<stop stop-color="#00A0FF"/>
<stop offset="0.0066" stop-color="#00A1FF"/>
<stop offset="0.2601" stop-color="#00BEFF"/>
<stop offset="0.5122" stop-color="#00D2FF"/>
<stop offset="0.7604" stop-color="#00DFFF"/>
<stop offset="1" stop-color="#00E3FF"/>
</linearGradient>
<linearGradient id="paint1_linear_5_1048" x1="34.4983" y1="20.0011" x2="10.3014" y2="20.0011" gradientUnits="userSpaceOnUse">
<stop stop-color="#FFE000"/>
<stop offset="0.4087" stop-color="#FFBD00"/>
<stop offset="0.7754" stop-color="#FFA500"/>
<stop offset="1" stop-color="#FF9C00"/>
</linearGradient>
<linearGradient id="paint2_linear_5_1048" x1="25.491" y1="22.2962" x2="2.73266" y2="45.0545" gradientUnits="userSpaceOnUse">
<stop stop-color="#FF3A44"/>
<stop offset="1" stop-color="#C31162"/>
</linearGradient>
<linearGradient id="paint3_linear_5_1048" x1="7.96127" y1="0.176104" x2="18.1239" y2="10.3386" gradientUnits="userSpaceOnUse">
<stop stop-color="#32A071"/>
<stop offset="0.0685" stop-color="#2DA771"/>
<stop offset="0.4762" stop-color="#15CF74"/>
<stop offset="0.8009" stop-color="#06E775"/>
<stop offset="1" stop-color="#00F076"/>
</linearGradient>
<clipPath id="clip0_5_1048">
<rect width="135" height="40" fill="white" transform="translate(0.664062)"/>
</clipPath>
</defs>
</svg>
